<svg xmlns="http://www.w3.org/2000/svg" viewBox="0 0 600 600"><rect width="600" height="600" fill="#D9F2C9"/><rect y="500" width="600" height="100" fill="#B7E09B"/><path d="M300 170 Q250 120 175 170 Q100 230 130 360 Q170 500 245 480 Q285 470 300 475 Q315 470 355 480 Q430 500 470 360 Q500 230 425 170 Q350 120 300 170Z" fill="#E8382F"/><path d="M180 215 Q150 270 165 335" stroke="#fff" stroke-width="14" fill="none" stroke-linecap="round" opacity=".5"/><path d="M300 170 Q295 120 320 85" stroke="#6B4423" stroke-width="16" fill="none" stroke-linecap="round"/><path d="M325 120 Q385 70 440 105 Q400 160 325 120Z" fill="#3FA34D"/></svg>